<?xml version="1.0" encoding="UTF-8"?><svg id="Layer_2" xmlns="http://www.w3.org/2000/svg" viewBox="0 0 703.42 708.27"><g id="Layer_1-2"><path d="M407.41,395.35c-.17.33-.34.66-.51.98,5.82,7.62,11.64,15.25,18.39,24.08,1.62-4.85,2.96-8.05,3.71-11.37.96-4.2,3.08-4.28,6.06-2.22,2.05,1.42,3.94,3.08,5.98,4.52,36.47,25.75,72.93,51.5,109.43,77.22,10.58,7.46,21.26,14.78,32.31,22.46,1.26-2.06,2.62-3.76,3.43-5.68,3.17-7.51,6.39-15.01,9.12-22.68,1.23-3.46,2.71-4.17,5.84-2.6,19.93,10.03,39.96,19.87,59.75,30.15,4.62,2.4,7.06,1.6,8.76-2.86,6.71-17.55,13.36-35.12,20.03-52.69.99-2.61.09-3.99-2.64-4.69-24.35-6.24-48.7-12.52-73.02-18.91-3.14-.83-4.15.23-4.68,3.16-1.36,7.53-3.05,15.01-4.46,22.53-.72,3.84-2.33,5.13-6.22,3.44-5.8-2.52-11.72-4.78-17.65-6.99-47.88-17.89-95.77-35.76-143.7-53.54-1.31-.49-3.02.1-4.55.21-2.31.15-4.75.86-6.92.38-6.22-1.37-12.33-3.23-18.48-4.89ZM278.73,383.29c-.17-.34-.34-.68-.51-1.02-5.29,1.32-10.53,2.86-15.86,3.94-20.55,4.17-41.12,8.22-61.7,12.23-2.73.53-3.41,1.74-2.16,4.14,1.46,2.81,2.82,5.68,4.4,8.41,4.57,7.88,4.57,7.79-3.77,11.16-51.09,20.68-102.15,41.43-153.27,62.03-3.55,1.43-4.37,3.03-2.45,6.29,4.39,7.46,8.49,15.09,13.1,22.41,2.3,3.64,1.61,5.65-1.93,7.57-3.21,1.74-6.14,4.02-9.36,5.74-3.17,1.7-3.38,3.65-1.44,6.41,11.65,16.61,23.28,33.24,34.87,49.9,1.73,2.48,3.44,2.79,5.69.66,3.38-3.2,6.81-6.37,10.33-9.42,2.67-2.31,2.25-4.04,0-6.59-6.18-6.98-11.96-14.32-18.01-21.42-2.45-2.88-2.11-4.93,1.08-6.85,2.56-1.55,5.04-3.25,7.48-4.99,42.54-30.44,85.05-60.9,127.59-91.33,8.39-6,8.51-6.03,1.4-13.16-2.62-2.63-2.32-4.59.6-6.4,10.62-6.57,21.29-13.04,31.9-19.62,10.71-6.65,21.36-13.38,32.04-20.08ZM271.84,355.8c-.06-.37-.12-.75-.18-1.12-9.63-1.78-19.26-3.58-28.9-5.34-19.32-3.53-38.65-6.97-57.95-10.6-3.45-.65-3.76.92-3.37,3.51.84,5.59,1.79,11.17,2.52,16.77.34,2.61.91,5.66-3.36,5.7-16.46.16-32.92.33-49.38.47-34.32.3-68.65.6-102.97.88-6.33.05-12.66.12-19,.04-2.93-.04-4.5.83-3.89,4.06,1.77,9.32,3.33,18.69,5.31,27.97,1.39,6.51,1.37,7.1-5.03,8.5-4.38.96-6.25,2.84-5.05,7.66,3.94,15.81,7.15,31.81,11.46,47.51,3.87,14.1,2.21,12.15,15.25,6.8,2.93-1.2,3.61-2.47,2.34-5.64-3.77-9.43-7.05-19.05-10.62-28.56-1.4-3.72-.25-5.54,3.61-6.4,9.1-2.03,18.15-4.25,27.19-6.53,43.12-10.85,86.24-21.77,129.36-32.63,10-2.52,10.01-2.47,6.83-12.25-1.94-5.96-1.29-6.97,4.76-7.47,1.33-.11,2.65-.31,3.96-.53,22.5-3.79,44.99-7.6,67.49-11.38,3.19-.54,6.41-.95,9.61-1.42ZM402.92,452.43c3.19-3.42,5.77-5.88,8-8.63,3.07-3.78,4.04-3.76,6.9.32,33.69,47.97,67.44,95.9,101.07,143.91,2.29,3.27,4.16,3.27,6.74.72,4.97-4.91,10.08-9.68,14.93-14.7,3.79-3.92,4.6-4.05,8.23-.02,11.94,13.23,23.93,26.4,35.78,39.71,2.16,2.43,3.85,2.61,6.22.48,14.65-13.19,28.01-27.54,39.74-43.41,1.75-2.37,1.67-4.05-.85-5.79-16.86-11.64-33.69-23.31-50.49-35.04-2.4-1.68-3.89-1.68-5.57,1.07-3.13,5.1-6.55,10.04-10.05,14.9-6.31,8.79-6.34,8.71-14.41,1.5-40.22-35.98-80.44-71.95-120.7-107.89-2.43-2.17-5.1-4.09-7.53-6.02-4.9,3.63-5.08,3.54-9.19-.16-3.96-3.56-8.05-6.98-12.15-10.38-3.26-2.69-6.63-5.25-9.95-7.86-.21.2-.43.41-.64.61,4.48,11.79,8.95,23.59,13.93,36.69ZM230.5,444.33c5.25,4.32,9.67,8.05,14.2,11.63,2.48,1.96,3.75,3.73.8,6.39-9.4,8.47-18.81,16.93-28.05,25.57-19.35,18.08-38.58,36.29-57.88,54.42-14.2,13.34-28.39,26.69-42.72,39.89-2.62,2.41-2.79,4-.07,6.34,6.57,5.64,12.89,11.56,19.49,17.16,4.46,3.79,4.59,3.98.66,8.59-3.03,3.54-5.8,7.32-8.99,10.72-2.36,2.52-1.98,4.26.63,6.04,15.54,10.58,31.03,21.21,46.69,31.61.92.61,3.97-.18,4.59-1.2,3.28-5.39,6.08-11.08,9.08-16.64,1.49-2.76.84-4.29-2.06-5.85-7.63-4.08-14.97-8.71-22.53-12.92-3.21-1.79-4.1-3.54-1.48-6.58,1.84-2.13,3.41-4.52,4.98-6.88,30.12-45.16,60.22-90.34,90.34-135.51,4.98-7.48,5.04-7.53-2.5-12.36-2.78-1.78-3.73-3.39-1.34-6.34,10.15-12.57,20.17-25.23,30.2-37.9,3.96-5.01,7.81-10.11,11.71-15.17-.2-.21-.39-.42-.59-.63-21.35,12.98-42.7,25.97-65.16,39.63ZM434.01,382.82c.25-2.59.52-3.86.46-5.11-.32-6.78.7-7.54,7.35-5.79,8.86,2.33,17.73,4.6,26.63,6.74,32.52,7.8,65.06,15.55,97.6,23.29,13.11,3.12,26.27,6.05,39.33,9.33,3.78.95,4.93-.43,4.97-3.78.1-7.49.27-14.98.2-22.46-.05-5.3.79-6.17,6.04-5.57,10.58,1.2,21.17,2.41,31.77,3.49,16.06,1.64,32.15,3.02,48.18,4.83,4.34.49,6.37-.64,6.41-5.03.15-16.65.69-33.3.34-49.94-.19-9.08-.06-9.62-9.03-7.33-.96.25-1.98.29-2.97.4-26.78,3.21-53.55,6.45-80.34,9.59-3.06.36-4,1.64-3.43,4.62,1.13,5.88,2.25,11.78,3,17.71.63,4.96-.78,6.36-5.71,6.41-35.29.31-70.58.63-105.87.89-19.99.15-39.99-.24-59.96.51-7.48.28-14.87,3.06-22.3,4.7.03.52.06,1.04.09,1.56,5.4,3.43,10.8,6.86,17.22,10.94ZM369.36,474.38c3.86-2.13,6.81-3.55,9.54-5.31,4.43-2.86,6.2-2.23,7.08,2.84.2,1.15.27,2.32.55,3.45,7.67,31.01,15.38,62.02,23.04,93.03,6.27,25.36,12.55,50.72,18.67,76.11.7,2.88,1.76,3.71,4.42,2.55,8.38-3.65,16.85-7.12,25.12-11.01,3.34-1.57,5.18-1.24,6.55,2.28,5.31,13.65,10.82,27.22,16.05,40.89,1.19,3.1,2.88,4.01,5.66,2.59,16.15-8.22,32.27-16.5,48.4-24.77,3.37-1.73,3.89-3.86,1.69-7.21-8.68-13.23-17.12-26.61-25.69-39.91-.84-1.31-1.99-2.42-2.84-3.43-8.11,5.49-15.67,10.62-23.24,15.74-5.93,4.01-6.08,3.94-9.32-2.56-11.5-23.1-22.99-46.21-34.54-69.28-13.49-26.94-27.04-53.86-40.6-80.77-1.45-2.88-3.11-5.66-4.71-8.55q-6.99,4.95-10.54-2.14c-5.11-10.1-10.24-20.19-15.4-30.27-.39-.76-1.11-1.35-2.33-2.78.82,16.4,1.59,31.74,2.44,48.49ZM411.33,310.95c.21.3.41.61.62.91,4.43-2.56,8.74-5.35,13.31-7.65,18.14-9.13,36.44-17.95,54.53-27.17,25.96-13.23,51.77-26.75,77.69-40.05,3.35-1.72,4.15-3.34,1.47-6.37-4.72-5.36-9.15-10.98-13.89-16.33-2.02-2.28-2.05-3.93.38-5.77,13.26-10.08,26.52-20.15,39.71-30.3,14.52-11.17,28.95-22.46,43.48-33.63,3.35-2.58,4.41-4.88,1.11-8.5-10.98-12.05-21.63-24.4-32.65-36.41-4.13-4.51-4.81-4.2-8.87.67-1.39,1.66-2.81,3.3-4.26,4.9-22.12,24.47-44.19,48.97-66.42,73.33-2.73,3-2.62,4.77.46,7.2,3.91,3.1,7.52,6.58,11.27,9.88,4.49,3.95,4.49,4.61.08,8.33-3.06,2.58-6.09,5.19-9.05,7.87-26.88,24.41-53.75,48.84-80.62,73.26-9.46,8.6-18.9,17.22-28.34,25.83ZM0,299.17c1.54.43,2.45.79,3.4.93,11.7,1.71,23.39,3.48,35.1,5.04,27.73,3.7,55.47,7.28,83.2,10.94,14.85,1.96,29.67,4.31,44.56,5.91,12.2,1.31,12.3.94,13.38-11.24.34-3.83,1.96-4.83,5.62-3.82,5.61,1.54,11.3,2.82,16.99,4.05,24.39,5.29,48.8,10.52,73.21,15.74.71.15,1.47.02,2.21.02.08-.28.16-.56.25-.84-29.8-17.52-59.59-35.04-90.03-52.93-1.3,6.48-2.41,11.5-3.3,16.55-1.82,10.24-1.77,10.25-11.66,6.39-.16-.06-.31-.13-.46-.19-51.04-18.96-102.1-37.89-153.1-56.97-3.3-1.23-4.62-.3-5.42,2.67-3.2,11.89-6.58,23.73-9.54,35.68-1.79,7.21-2.93,14.58-4.39,22.05ZM276.82,473.67c3.24,1.17,5.35,2.12,7.55,2.7,9.44,2.52,9.98,2.64,5.09,12.76-25.14,52-49.87,104.2-74.83,156.29-1.63,3.41-.59,4.79,2.64,5.79,7.94,2.46,15.8,5.16,23.74,7.59,3.78,1.16,5.18,2.92,3.53,6.97-2.7,6.62-4.86,13.45-7.48,20.11-1.15,2.92-.33,4.34,2.49,5.2,4.14,1.26,8.15,2.99,12.35,3.97,13.27,3.11,26.6,5.99,39.92,8.92,2.49.55,4.62.49,5.02-2.94,1.04-8.91,2.17-17.82,3.41-26.71.41-2.94-.79-3.75-3.49-4.03-8.43-.88-16.84-1.97-25.25-3.03-4.96-.63-5.47-1.74-4.23-6.6,5.21-20.46,10.4-40.93,15.41-61.45,4.34-17.77,8.41-35.61,12.65-53.41,4.66-19.57,9.43-39.11,13.97-58.71.21-.93-1.27-3.15-2.17-3.28-4.3-.63-4.53-2.91-3.57-6.42,2.36-8.67,4.64-17.36,6.71-26.11,2.42-10.24,4.58-20.54,7.13-32.05-13.79,18.51-26.86,36.03-40.58,54.44ZM42.37,176.16c4.29,2.5,7.24,4.32,10.28,5.98,32.73,17.9,65.48,35.78,98.22,53.67,12.13,6.63,24.29,13.22,36.36,19.96,3.24,1.81,5.21,1.33,6.57-2.16,1.27-3.25,2.87-6.38,4.1-9.65,1.39-3.69,3.24-3.98,6.4-1.77,20.62,14.4,41.31,28.69,61.98,43.02,9.11,6.32,18.22,12.65,27.33,18.97.17-.15.33-.31.5-.46-24.82-30.45-49.64-60.9-75.23-92.29-4.57,6.9-8.56,12.57-12.14,18.49-2.13,3.53-4.11,3.79-7.07,1.14-18.74-16.78-37.47-33.57-56.3-50.24-19.84-17.56-39.81-34.96-59.66-52.5-2.41-2.13-4.19-2.18-6.19.4-3.27,4.2-6.85,8.17-9.99,12.47-8.32,11.39-16.48,22.91-25.14,34.98ZM428.34,335.69c.04.29.09.57.13.86,11.85-1.3,23.71-2.51,35.55-3.92,35.05-4.18,70.09-8.4,105.13-12.67,9.09-1.11,18.15-2.47,27.22-3.67,2.22-.29,4.06-.74,3.09-3.68-2.13-6.48-4.03-13.04-6.41-19.43-2.24-6.04-1.99-6.55,4.07-8.24,30-8.33,59.96-16.82,89.95-25.17,3.47-.97,4.07-2.72,2.85-5.9-6.56-17.06-13.04-34.15-19.5-51.25-1.23-3.26-2.73-3.78-5.99-2.03-24.52,13.11-49.16,26-73.75,38.96-5.99,3.16-11.97,6.33-18.25,9.66,3.03,5.55,5.74,10.48,8.41,15.43,5.09,9.43,5.12,9.52-5.08,13.51-36.9,14.44-73.83,28.81-110.75,43.21-12.23,4.77-24.44,9.56-36.66,14.34ZM393.03,291.93c.39.32.79.63,1.18.95.62-.98,1.13-2.06,1.88-2.93,12.22-14.08,24.45-28.15,36.72-42.19,20.93-23.94,41.87-47.89,62.89-71.75,2.53-2.87,2.46-4.57-1-6.47-6.13-3.36-12.06-7.07-18.12-10.54-2.4-1.37-3.5-2.65-1.59-5.47,12.15-17.9,24.24-35.85,36.2-53.88,8.93-13.46,17.55-27.11,26.47-40.58,2.31-3.48,1.77-5.42-1.94-7.32-15.54-7.96-30.97-16.12-46.46-24.18-2.97-1.54-4.65-.84-5.94,2.59-12.71,33.62-25.62,67.16-38.41,100.74-4.49,11.8-4.41,11.83,7.47,16.02,11.08,3.91,10.92,3.83,5.77,14.17-17.31,34.7-34.48,69.48-51.73,104.21-4.42,8.89-8.91,17.74-13.38,26.62ZM271.24,162.99c-1.53.43-2.27.45-2.74.81-5.01,3.86-10.02,7.71-14.93,11.7-3.1,2.52-5.37,2.21-7.04-1.5-1.02-2.28-1.96-4.6-3.13-6.8-21.19-39.82-42.44-79.61-63.56-119.47-1.78-3.36-3.46-3.38-6.2-1.46-14.17,9.91-28.37,19.78-42.61,29.6-3.19,2.2-3.44,4.2-.8,7.26,11.09,12.86,21.98,25.89,32.93,38.88,20.71,24.57,41.42,49.14,62.05,73.78,2.01,2.4,3.4,2.74,5.44.19,2.39-2.98,5.19-5.65,7.5-8.69,2.53-3.35,4.52-2.67,6.61.29,17.59,24.88,35.19,49.75,52.77,74.64,5.54,7.84,11.05,15.69,16.58,23.54.18-.09.36-.19.54-.28-14.45-40.79-28.91-81.58-43.4-122.48ZM324.95,483.18c5.39-.32,9.68-.41,13.93-.86,3.74-.4,5.39.93,4.94,4.72-.73,6.28-1.45,12.56-2.13,18.85-3.4,31.11-6.86,62.21-10.15,93.34-2.31,21.84-4.27,43.73-6.69,65.56-.47,4.26.98,4.94,4.58,4.61,7.62-.7,15.27-1.22,22.9-1.81,3.38-.26,5.29.77,5.28,4.71-.02,8.65.43,17.3.51,25.95.1,10.01.08,10.63,9.76,9.73,16.88-1.57,33.69-3.92,50.5-6.19,1.14-.15,3.07-2.55,2.86-3.51-2.97-13.32-6.2-26.58-9.58-39.8-.2-.8-2.37-1.82-3.32-1.58-7.72,2-15.38,4.27-23.05,6.49-5.57,1.61-6.92.75-7.61-4.81-3.11-25.1-6.27-50.2-9.34-75.3-2.65-21.65-5.12-43.31-7.8-64.95-1.37-11.06-3.07-22.09-4.55-33.14-.33-2.49-.97-4.08-4.06-3.48-3.83.75-4.77-1.59-5.07-4.95-1.31-14.59-2.8-29.17-4.26-43.74-.06-.56-.48-1.08-1.23-2.66-5.57,17.88-10.82,34.75-16.44,52.81ZM338.96,273.31c.33-.04.66-.09.99-.13,0-7.47-.06-14.94,0-22.41.33-36.81.69-73.62,1.03-110.42,0-.5.17-1.25-.08-1.45-1.07-.84-2.37-2.26-3.41-2.13-3.94.51-7.81,1.55-11.71,2.38-8.71,1.85-8.8,1.86-10.16-7.2-4.32-28.78-8.58-57.57-12.85-86.36-1.88-12.67-3.74-25.34-5.62-38.01-.34-2.27-.67-4.34-3.96-3.52-17.27,4.27-34.55,8.52-51.86,12.62-4.49,1.06-4.88,3.04-3.35,7.14,14.15,38.06,28.2,76.17,42.07,114.34,5.4,14.86,5.16,14.95,19.12,7.89,5.29-2.68,6.33-2.32,7.92,3.66,2.94,11.1,5.62,22.27,8.48,33.39,5.25,20.47,10.53,40.93,15.83,61.39,2.49,9.62,5.04,19.23,7.57,28.84ZM367.55,281.53c.21.05.42.11.64.16.5-1.14,1.05-2.26,1.5-3.42,11.46-29.84,22.93-59.67,34.35-89.53,5.59-14.61,11-29.28,16.7-43.85,1.64-4.19.84-6.1-3.78-6.65-6.1-.73-12.13-2.02-18.23-2.79-3.46-.44-5.28-1.58-4.33-5.44,3.85-15.66,7.69-31.32,11.38-47.02,5.6-23.8,11.03-47.65,16.67-71.44.86-3.62.06-5.25-3.74-5.67-16.52-1.82-33.02-3.93-49.56-5.62-7.24-.74-7.21-.4-7.24,6.84-.1,22.65-.28,45.3-.37,67.95-.08,17.99-.04,35.98-.14,53.97-.01,2.88,1.07,3.79,3.93,3.53,3.8-.35,7.64-.33,11.47-.37,6.48-.07,7.28.75,6.55,7.23-2.33,20.83-4.73,41.66-7.12,62.49-2.89,25.29-5.79,50.58-8.66,75.87-.14,1.23-.02,2.5-.02,3.75Z" style="fill:#fff; stroke-width:0px;"/><path d="M407.41,395.35c6.15,1.67,12.26,3.52,18.48,4.89,2.17.48,4.6-.22,6.92-.38,1.52-.1,3.24-.69,4.55-.21,47.92,17.78,95.81,35.65,143.7,53.54,5.93,2.21,11.85,4.47,17.65,6.99,3.89,1.69,5.5.4,6.22-3.44,1.41-7.53,3.1-15,4.46-22.53.53-2.93,1.53-3.98,4.68-3.16,24.32,6.39,48.66,12.67,73.02,18.91,2.73.7,3.63,2.08,2.64,4.69-6.67,17.57-13.32,35.14-20.03,52.69-1.7,4.46-4.14,5.26-8.76,2.86-19.79-10.29-39.83-20.12-59.75-30.15-3.12-1.57-4.61-.86-5.84,2.6-2.73,7.67-5.95,15.17-9.12,22.68-.81,1.93-2.17,3.63-3.43,5.68-11.05-7.68-21.72-15-32.31-22.46-36.49-25.71-72.96-51.46-109.43-77.22-2.04-1.44-3.93-3.1-5.98-4.52-2.98-2.07-5.1-1.98-6.06,2.22-.76,3.33-2.1,6.52-3.71,11.37-6.75-8.84-12.57-16.46-18.39-24.08.17-.33.34-.66.51-.98Z" style="fill:#000; stroke-width:0px;"/><path d="M278.73,383.29c-10.68,6.7-21.33,13.44-32.04,20.08-10.61,6.58-21.28,13.05-31.9,19.62-2.92,1.8-3.21,3.77-.6,6.4,7.1,7.13,6.99,7.16-1.4,13.16-42.54,30.43-85.06,60.89-127.59,91.33-2.44,1.74-4.91,3.44-7.48,4.99-3.18,1.92-3.53,3.98-1.08,6.85,6.05,7.1,11.83,14.44,18.01,21.42,2.26,2.55,2.67,4.28,0,6.59-3.52,3.05-6.95,6.21-10.33,9.42-2.25,2.13-3.96,1.82-5.69-.66-11.6-16.65-23.22-33.28-34.87-49.9-1.94-2.76-1.72-4.72,1.44-6.41,3.22-1.73,6.15-4,9.36-5.74,3.54-1.92,4.23-3.93,1.93-7.57-4.61-7.31-8.71-14.95-13.1-22.41-1.92-3.26-1.1-4.86,2.45-6.29,51.12-20.6,102.18-41.35,153.27-62.03,8.34-3.38,8.33-3.29,3.77-11.16-1.59-2.74-2.95-5.6-4.4-8.41-1.24-2.4-.56-3.61,2.16-4.14,20.58-4.01,41.15-8.06,61.7-12.23,5.33-1.08,10.58-2.61,15.86-3.94.17.34.34.68.51,1.02Z" style="fill:#000; stroke-width:0px;"/><path d="M271.84,355.8c-3.21.47-6.42.88-9.61,1.42-22.5,3.78-44.99,7.59-67.49,11.38-1.31.22-2.63.42-3.96.53-6.05.5-6.7,1.51-4.76,7.47,3.19,9.78,3.17,9.73-6.83,12.25-43.12,10.86-86.23,21.77-129.36,32.63-9.04,2.28-18.09,4.5-27.19,6.53-3.86.86-5.01,2.68-3.61,6.4,3.57,9.51,6.85,19.13,10.62,28.56,1.27,3.17.6,4.44-2.34,5.64-13.04,5.34-11.38,7.29-15.25-6.8-4.31-15.7-7.52-31.7-11.46-47.51-1.2-4.82.68-6.7,5.05-7.66,6.4-1.4,6.42-2,5.03-8.5-1.98-9.28-3.54-18.65-5.31-27.97-.61-3.23.95-4.1,3.89-4.06,6.33.08,12.66.01,19-.04,34.32-.29,68.65-.58,102.97-.88,16.46-.14,32.92-.32,49.38-.47,4.27-.04,3.69-3.08,3.36-5.7-.73-5.61-1.68-11.18-2.52-16.77-.39-2.59-.08-4.16,3.37-3.51,19.3,3.63,38.63,7.07,57.95,10.6,9.64,1.76,19.26,3.56,28.9,5.34.06.37.12.75.18,1.12Z" style="fill:#000; stroke-width:0px;"/><path d="M402.92,452.43c-4.97-13.11-9.45-24.9-13.93-36.69.21-.2.43-.41.64-.61,3.32,2.62,6.69,5.17,9.95,7.86,4.11,3.39,8.2,6.81,12.15,10.38,4.11,3.7,4.3,3.79,9.19.16,2.44,1.94,5.1,3.85,7.53,6.02,40.25,35.94,80.48,71.91,120.7,107.89,8.06,7.21,8.09,7.29,14.41-1.5,3.49-4.86,6.91-9.8,10.05-14.9,1.69-2.75,3.17-2.74,5.57-1.07,16.79,11.73,33.63,23.41,50.49,35.04,2.52,1.74,2.6,3.42.85,5.79-11.72,15.87-25.09,30.22-39.74,43.41-2.37,2.13-4.06,1.95-6.22-.48-11.85-13.31-23.85-26.48-35.78-39.71-3.64-4.03-4.45-3.91-8.23.02-4.85,5.02-9.96,9.8-14.93,14.7-2.58,2.55-4.45,2.54-6.74-.72-33.63-48.01-67.37-95.95-101.07-143.91-2.86-4.08-3.83-4.1-6.9-.32-2.23,2.75-4.81,5.21-8,8.63Z" style="fill:#000; stroke-width:0px;"/><path d="M230.5,444.33c22.46-13.66,43.81-26.65,65.16-39.63.2.21.39.42.59.63-3.9,5.06-7.74,10.16-11.71,15.17-10.02,12.67-20.05,25.33-30.2,37.9-2.39,2.95-1.44,4.56,1.34,6.34,7.54,4.83,7.48,4.88,2.5,12.36-30.11,45.17-60.21,90.35-90.34,135.51-1.57,2.35-3.13,4.74-4.98,6.88-2.62,3.03-1.73,4.79,1.48,6.58,7.56,4.21,14.9,8.83,22.53,12.92,2.91,1.56,3.56,3.09,2.06,5.85-3.01,5.56-5.8,11.25-9.08,16.64-.62,1.02-3.67,1.81-4.59,1.2-15.66-10.4-31.15-21.03-46.69-31.61-2.61-1.78-2.99-3.52-.63-6.04,3.18-3.4,5.96-7.17,8.99-10.72,3.93-4.6,3.81-4.8-.66-8.59-6.6-5.6-12.92-11.52-19.49-17.16-2.72-2.33-2.55-3.92.07-6.34,14.33-13.2,28.52-26.56,42.72-39.89,19.3-18.13,38.53-36.34,57.88-54.42,9.24-8.64,18.65-17.1,28.05-25.57,2.95-2.66,1.68-4.43-.8-6.39-4.53-3.58-8.94-7.31-14.2-11.63Z" style="fill:#000; stroke-width:0px;"/><path d="M434.01,382.82c-6.42-4.08-11.82-7.51-17.22-10.94-.03-.52-.06-1.04-.09-1.56,7.43-1.64,14.82-4.43,22.3-4.7,19.97-.74,39.97-.36,59.96-.51,35.29-.26,70.58-.57,105.87-.89,4.92-.04,6.34-1.44,5.71-6.41-.75-5.94-1.87-11.83-3-17.71-.57-2.98.37-4.26,3.43-4.62,26.79-3.14,53.56-6.38,80.34-9.59.99-.12,2.01-.16,2.97-.4,8.98-2.3,8.85-1.76,9.03,7.33.34,16.64-.19,33.29-.34,49.94-.04,4.39-2.07,5.52-6.41,5.03-16.04-1.82-32.13-3.2-48.18-4.83-10.6-1.08-21.18-2.28-31.77-3.49-5.25-.6-6.09.27-6.04,5.57.07,7.49-.1,14.98-.2,22.46-.04,3.35-1.19,4.73-4.97,3.78-13.07-3.28-26.22-6.21-39.33-9.33-32.54-7.74-65.08-15.49-97.6-23.29-8.9-2.14-17.77-4.41-26.63-6.74-6.65-1.75-7.67-.98-7.35,5.79.06,1.25-.21,2.52-.46,5.11Z" style="fill:#000; stroke-width:0px;"/><path d="M369.36,474.38c-.84-16.74-1.61-32.08-2.44-48.49,1.21,1.43,1.94,2.02,2.33,2.78,5.16,10.07,10.3,20.16,15.4,30.27q3.58,7.08,10.54,2.14c1.6,2.9,3.26,5.67,4.71,8.55,13.56,26.91,27.1,53.83,40.6,80.77,11.55,23.07,23.04,46.18,34.54,69.28,3.23,6.5,3.38,6.57,9.32,2.56,7.57-5.12,15.13-10.25,23.24-15.74.85,1.02,2,2.13,2.84,3.43,8.57,13.3,17.02,26.68,25.69,39.91,2.19,3.35,1.68,5.48-1.69,7.21-16.13,8.27-32.24,16.56-48.4,24.77-2.79,1.42-4.48.51-5.66-2.59-5.23-13.68-10.74-27.25-16.05-40.89-1.37-3.53-3.2-3.85-6.55-2.28-8.27,3.89-16.74,7.36-25.12,11.01-2.66,1.16-3.72.33-4.42-2.55-6.12-25.39-12.4-50.75-18.67-76.11-7.67-31.01-15.37-62.02-23.04-93.03-.28-1.13-.36-2.3-.55-3.45-.87-5.07-2.65-5.7-7.08-2.84-2.73,1.76-5.68,3.18-9.54,5.31Z" style="fill:#000; stroke-width:0px;"/><path d="M411.33,310.95c9.45-8.61,18.89-17.23,28.34-25.83,26.87-24.43,53.73-48.86,80.62-73.26,2.96-2.69,5.99-5.3,9.05-7.87,4.41-3.72,4.42-4.38-.08-8.33-3.76-3.3-7.36-6.79-11.27-9.88-3.08-2.43-3.19-4.21-.46-7.2,22.23-24.36,44.31-48.86,66.42-73.33,1.45-1.61,2.87-3.24,4.26-4.9,4.07-4.86,4.74-5.18,8.87-.67,11.01,12.02,21.67,24.37,32.65,36.41,3.3,3.62,2.25,5.93-1.11,8.5-14.53,11.16-28.96,22.46-43.48,33.63-13.2,10.15-26.46,20.22-39.71,30.3-2.42,1.84-2.4,3.49-.38,5.77,4.74,5.35,9.17,10.97,13.89,16.33,2.68,3.04,1.88,4.65-1.47,6.37-25.92,13.3-51.73,26.82-77.69,40.05-18.09,9.22-36.39,18.04-54.53,27.17-4.56,2.3-8.88,5.08-13.31,7.65-.21-.3-.41-.61-.62-.91Z" style="fill:#000; stroke-width:0px;"/><path d="M0,299.17c1.46-7.47,2.6-14.84,4.39-22.05,2.96-11.95,6.34-23.79,9.54-35.68.8-2.97,2.12-3.9,5.42-2.67,51,19.07,102.06,38,153.1,56.97.16.06.31.13.46.19,9.89,3.85,9.84,3.84,11.66-6.39.9-5.05,2-10.07,3.3-16.55,30.44,17.9,60.23,35.41,90.03,52.93-.08.28-.16.56-.25.84-.74,0-1.5.13-2.21-.02-24.41-5.23-48.81-10.46-73.21-15.74-5.69-1.23-11.38-2.5-16.99-4.05-3.66-1.01-5.28-.01-5.62,3.82-1.08,12.18-1.19,12.55-13.38,11.24-14.89-1.6-29.7-3.94-44.56-5.91-27.73-3.66-55.47-7.24-83.2-10.94-11.72-1.56-23.41-3.34-35.1-5.04-.95-.14-1.86-.5-3.4-.93Z" style="fill:#000; stroke-width:0px;"/><path d="M276.82,473.67c13.72-18.41,26.78-35.94,40.58-54.44-2.55,11.51-4.71,21.81-7.13,32.05-2.07,8.74-4.35,17.44-6.71,26.11-.96,3.52-.73,5.8,3.57,6.42.91.13,2.39,2.35,2.17,3.28-4.54,19.6-9.3,39.14-13.97,58.71-4.24,17.8-8.31,35.64-12.65,53.41-5.01,20.51-10.2,40.98-15.41,61.45-1.24,4.86-.72,5.97,4.23,6.6,8.41,1.07,16.82,2.15,25.25,3.03,2.71.28,3.9,1.09,3.49,4.03-1.24,8.89-2.37,17.79-3.41,26.71-.4,3.44-2.53,3.49-5.02,2.94-13.32-2.93-26.65-5.8-39.92-8.92-4.19-.98-8.21-2.71-12.35-3.97-2.83-.86-3.64-2.28-2.49-5.2,2.62-6.65,4.78-13.49,7.48-20.11,1.65-4.05.25-5.81-3.53-6.97-7.94-2.44-15.81-5.13-23.74-7.59-3.22-1-4.27-2.38-2.64-5.79,24.96-52.09,49.69-104.28,74.83-156.29,4.89-10.12,4.35-10.24-5.09-12.76-2.2-.59-4.31-1.53-7.55-2.7Z" style="fill:#000; stroke-width:0px;"/><path d="M42.37,176.16c8.66-12.07,16.81-23.59,25.14-34.98,3.14-4.3,6.72-8.27,9.99-12.47,2-2.57,3.79-2.52,6.19-.4,19.85,17.54,39.83,34.94,59.66,52.5,18.84,16.67,37.56,33.46,56.3,50.24,2.96,2.65,4.94,2.39,7.07-1.14,3.58-5.92,7.58-11.59,12.14-18.49,25.59,31.4,50.41,61.84,75.23,92.29-.17.15-.33.31-.5.46-9.11-6.32-18.22-12.65-27.33-18.97-20.67-14.33-41.37-28.62-61.98-43.02-3.15-2.2-5.01-1.92-6.4,1.77-1.23,3.27-2.83,6.39-4.1,9.65-1.36,3.49-3.33,3.97-6.57,2.16-12.07-6.74-24.22-13.33-36.36-19.96-32.74-17.89-65.49-35.76-98.22-53.67-3.04-1.66-5.99-3.48-10.28-5.98Z" style="fill:#000; stroke-width:0px;"/><path d="M428.34,335.69c12.22-4.78,24.44-9.57,36.66-14.34,36.92-14.4,73.85-28.77,110.75-43.21,10.2-3.99,10.17-4.08,5.08-13.51-2.67-4.95-5.38-9.88-8.41-15.43,6.28-3.32,12.26-6.5,18.25-9.66,24.6-12.96,49.23-25.86,73.75-38.96,3.27-1.75,4.76-1.23,5.99,2.03,6.46,17.1,12.94,34.19,19.5,51.25,1.22,3.17.62,4.93-2.85,5.9-30,8.35-59.95,16.84-89.95,25.17-6.06,1.68-6.31,2.2-4.07,8.24,2.37,6.39,4.27,12.95,6.41,19.43.97,2.94-.87,3.39-3.09,3.68-9.08,1.2-18.13,2.56-27.22,3.67-35.04,4.27-70.08,8.5-105.13,12.67-11.84,1.41-23.7,2.62-35.55,3.92-.04-.29-.09-.57-.13-.86Z" style="fill:#000; stroke-width:0px;"/><path d="M393.03,291.93c4.46-8.87,8.96-17.72,13.38-26.62,17.25-34.74,34.42-69.51,51.73-104.21,5.15-10.34,5.32-10.25-5.77-14.17-11.87-4.19-11.96-4.23-7.47-16.02,12.79-33.59,25.7-67.13,38.41-100.74,1.3-3.43,2.98-4.13,5.94-2.59,15.49,8.06,30.92,16.22,46.46,24.18,3.71,1.9,4.25,3.84,1.94,7.32-8.91,13.46-17.54,27.12-26.47,40.58-11.96,18.03-24.05,35.98-36.2,53.88-1.91,2.82-.81,4.1,1.59,5.47,6.06,3.47,12,7.18,18.12,10.54,3.46,1.9,3.53,3.6,1,6.47-21.02,23.87-41.96,47.81-62.89,71.75-12.27,14.03-24.5,28.11-36.72,42.19-.75.87-1.26,1.95-1.88,2.93-.39-.32-.79-.63-1.18-.95Z" style="fill:#000; stroke-width:0px;"/><path d="M271.24,162.99c14.49,40.9,28.95,81.69,43.4,122.48-.18.09-.36.19-.54.28-5.52-7.85-11.04-15.7-16.58-23.54-17.59-24.88-35.18-49.76-52.77-74.64-2.09-2.95-4.08-3.63-6.61-.29-2.3,3.05-5.1,5.71-7.5,8.69-2.04,2.54-3.43,2.21-5.44-.19-20.63-24.64-41.34-49.2-62.05-73.78-10.94-12.99-21.84-26.02-32.93-38.88-2.64-3.06-2.39-5.06.8-7.26,14.23-9.83,28.43-19.7,42.61-29.6,2.74-1.92,4.42-1.91,6.2,1.46,21.11,39.86,42.37,79.65,63.56,119.47,1.17,2.2,2.11,4.53,3.13,6.8,1.67,3.71,3.94,4.02,7.04,1.5,4.91-3.99,9.92-7.84,14.93-11.7.47-.36,1.21-.38,2.74-.81Z" style="fill:#000; stroke-width:0px;"/><path d="M324.95,483.18c5.62-18.06,10.88-34.93,16.44-52.81.75,1.58,1.17,2.1,1.23,2.66,1.46,14.58,2.94,29.15,4.26,43.74.3,3.36,1.24,5.7,5.07,4.95,3.09-.6,3.73.99,4.06,3.48,1.48,11.05,3.17,22.08,4.55,33.14,2.68,21.64,5.16,43.31,7.8,64.95,3.07,25.11,6.24,50.2,9.34,75.3.69,5.56,2.04,6.42,7.61,4.81,7.67-2.22,15.33-4.49,23.05-6.49.95-.25,3.12.78,3.32,1.58,3.38,13.22,6.61,26.48,9.58,39.8.21.96-1.71,3.35-2.86,3.51-16.81,2.27-33.62,4.62-50.5,6.19-9.68.9-9.66.28-9.76-9.73-.09-8.65-.53-17.3-.51-25.95,0-3.95-1.9-4.97-5.28-4.71-7.64.59-15.28,1.1-22.9,1.81-3.6.33-5.05-.35-4.58-4.61,2.42-21.83,4.37-43.72,6.69-65.56,3.3-31.12,6.76-62.23,10.15-93.34.69-6.29,1.4-12.57,2.13-18.85.44-3.8-1.2-5.12-4.94-4.72-4.25.46-8.54.55-13.93.86Z" style="fill:#000; stroke-width:0px;"/><path d="M338.96,273.31c-2.52-9.61-5.08-19.22-7.57-28.84-5.3-20.46-10.58-40.92-15.83-61.39-2.85-11.12-5.54-22.29-8.48-33.39-1.58-5.98-2.62-6.34-7.92-3.66-13.96,7.06-13.72,6.97-19.12-7.89-13.87-38.17-27.91-76.27-42.07-114.34-1.53-4.1-1.14-6.08,3.35-7.14,17.31-4.09,34.59-8.34,51.86-12.62,3.3-.82,3.63,1.25,3.96,3.52,1.87,12.67,3.74,25.34,5.62,38.01,4.27,28.79,8.53,57.58,12.85,86.36,1.36,9.06,1.44,9.05,10.16,7.2,3.9-.83,7.77-1.87,11.71-2.38,1.04-.13,2.34,1.28,3.41,2.13.25.2.09.95.08,1.45-.35,36.81-.71,73.62-1.03,110.42-.07,7.47,0,14.94,0,22.41-.33.04-.66.09-.99.13Z" style="fill:#000; stroke-width:0px;"/><path d="M367.55,281.53c0-1.25-.12-2.51.02-3.75,2.87-25.29,5.77-50.58,8.66-75.87,2.38-20.83,4.78-41.65,7.12-62.49.73-6.48-.07-7.3-6.55-7.23-3.83.04-7.67.02-11.47.37-2.86.26-3.94-.66-3.93-3.53.09-17.99.06-35.98.14-53.97.09-22.65.27-45.3.37-67.95.03-7.24,0-7.58,7.24-6.84,16.54,1.69,33.03,3.8,49.56,5.62,3.8.42,4.6,2.05,3.74,5.67-5.65,23.79-11.07,47.64-16.67,71.44-3.69,15.7-7.54,31.36-11.38,47.02-.95,3.86.87,5,4.33,5.44,6.1.77,12.13,2.06,18.23,2.79,4.62.55,5.41,2.47,3.78,6.65-5.69,14.57-11.11,29.24-16.7,43.85-11.42,29.85-22.89,59.69-34.35,89.53-.45,1.16-1,2.28-1.5,3.42-.21-.05-.42-.11-.64-.16Z" style="fill:#000; stroke-width:0px;"/></g></svg>